<svg viewBox="0 0 32 32" xmlns="http://www.w3.org/2000/svg">
  <style>
    .element { fill: #23015a; }
    @media (prefers-color-scheme: dark) {
      .element { fill: #ffffff }
    }
  </style>
  <mask id="a" fill="#fff">
    <path d="m2.55395454 1.99393973 18.00247226-1.976589c1.5729446-.17266206 2.9873602.96283791 3.159256 2.53637848l.0035758.03328939c.1718958 1.57345543-.9638596 2.98906299-2.536719 3.16172506l-18.00248926 1.97667413c-1.57290202.17266207-2.98732616-.96283791-3.15920494-2.53637848l-.00364396-.03328938c-.17188729-1.57354057.96385959-2.989063 2.5367531-3.1618102zm17.54178456.71457234c-.0001702.65139914.5275218 1.17926147 1.1785804 1.17909123.6510586-.00008518 1.1790061-.52828806 1.1791764-1.17960206.0001702-.65139914-.5275218-1.17926147-1.1785804-1.17909123-.6510586.00017032-1.1790061.52828806-1.1791764 1.17960206zm-8.9728081 1.17883577c-.0001703.57894578.4688609 1.04823242 1.0476364 1.04806218.5786904-.00008518 1.047977-.4695421 1.0481473-1.04857301.0000852-.57894578-.4689461-1.04823242-1.0476364-1.04806219-.5787755.00017033-1.0480622.46962724-1.0481473 1.04857302zm-9.31678713.94002064c-.00013619.57903092.46891205 1.04823241 1.04764498 1.04814727.57873293-.00017027 1.04798551-.46962719 1.04815579-1.04857297.00008514-.57903091-.46892905-1.04823241-1.04766198-1.04814727-.57873293.00017028-1.04800254.46962719-1.04813879 1.04857297z" fill="#fff" fill-rule="evenodd" />
  </mask>
  <mask id="b" fill="#fff">
    <path d="m5.62444301 1.98157746c-.48878349-1.50605082-2.10540443-2.32996728-3.61091887-1.84027281l-.03184202.01036994c-1.50551444.48970299-2.32966079 2.10756697-1.84079216 3.61361778l7.13218629 21.97506193c.48878349 1.5061104 2.10540443 2.3300013 3.61091885 1.8402813l.031842-.0103869c1.5054293-.4896349 2.3296608-2.107533 1.8407922-3.6135582zm3.87527577 17.49143334c-.00008518.6516546-.52820292 1.1800278-1.17951692 1.180198-.651314.0000852-1.17917633-.5280326-1.17900609-1.1796871.00008518-.6516546.52820292-1.1800277 1.17951692-1.180198.651314-.0000852 1.17917633.5280326 1.17900609 1.1796871zm-6.63948644-17.75188234c.57894577-.00011917 1.04823241.46935477 1.04806218 1.04859854-.00008519.57925228-.4695421 1.04892204-1.04848788 1.04904126-.57894578.00011917-1.04814727-.46934626-1.04806214-1.04859854.00017028-.57924376.46954206-1.04891353 1.04848784-1.04904126zm3.94866567 9.91338224c-.00008519.5792863-.4695421 1.0489135-1.04848788 1.0490838-.57894578.0000851-1.04814728-.4693718-1.04806214-1.0486581.00017028-.5792012.46954206-1.0489135 1.04848783-1.0489987.57894578-.0001703 1.04823242.4693718 1.04806219 1.048573z" fill="#fff" fill-rule="evenodd" />
  </mask>
  <mask id="c" fill="#fff">
    <path d="m30.1475946 2.25795949c.335448 1.54672175-.6462056 3.07309527-2.1925017 3.40922438l-24.48228876 5.32238473c-1.54628755.3361291-3.07169899-.645184-3.4070959-2.19199086-.33540543-1.54672175.64620565-3.07309527 2.1924932-3.40922438l24.48229726-5.32238476c1.5462961-.3361291 3.0717331.64526913 3.4070959 2.19199089zm-28.5514262 5.88804884c-.00013619.651314.52755585 1.17917632 1.17862295 1.17909119.6510671-.00017028 1.17897199-.52820289 1.17909973-1.17951689.0001362-.651314-.52755585-1.17926146-1.17862295-1.17909123-.6510671.00008518-1.17897199.52820293-1.17909973 1.17951693zm13.0686282-2.69737649c-.0001703.57894577.468861 1.04814727 1.0476365 1.04806213.5786903-.00008514 1.047977-.46954205 1.0480621-1.04848783.0001703-.57894578-.4689461-1.04814728-1.0476364-1.04806214-.5787755.00008514-1.047977.46954206-1.0480622 1.04848784zm11.6644803-2.60457489c-.0001702.57894578.4689461 1.04814727 1.0476365 1.04806213s1.047977-.46954205 1.0480622-1.04848783c.0001702-.57894578-.4689461-1.04814727-1.0476365-1.04806213-.5786904.00008513-1.047977.46954205-1.0480622 1.04848783z" fill="#fff" fill-rule="evenodd" />
  </mask>
  <g fill="none" fill-rule="evenodd" transform="translate(0 2)">
    <path d="m7.27129069 1.98157746c.48878348-1.50605082 2.10548957-2.32996728 3.61091891-1.84027281l.031842.01037846c1.5055144.48969447 2.3296608 2.10756696 1.8408773 3.61361778l-7.08043878 21.81551131c-.48880052 1.5061104-2.10545552 2.3300013-3.61091036 1.8402813l-.0318931-.010387c-1.50544633-.4896349-2.3296097-2.1075329-1.84080919-3.6135582zm-2.00574916 11.76830744c.00013625.6516546.52823696 1.1800277 1.17954245 1.1801129.65129697.0001703 1.17919335-.5279475 1.17902312-1.179602-.00008518-.6516546-.52821996-1.1800278-1.17952544-1.1801981-.65129697-.0001702-1.17917633.5280327-1.17904013 1.1796872zm3.72887905-10.98014939c.00008519.57925228.4695421 1.04892204 1.04848792 1.04904126.5788606.00011917 1.0481472-.46935477 1.047977-1.04859854-.0000852-.57924376-.4695421-1.04892204-1.0484879-1.04904125-.57894575-.00011918-1.04814725.46935477-1.04797702 1.04859853zm-7.21747009 22.00268109c.00011922.5792012.46954208 1.0489135 1.04847083 1.0489987.57893726.0001702 1.0481643-.4692867 1.04803662-1.048573-.00011922-.5792864-.46953356-1.0489136-1.04847083-1.0489988-.57893726-.0001702-1.0481643.4692867-1.04803662 1.0485731z" class="element" />
    <g fill="#fc3" fill-rule="nonzero" mask="url(#a)" transform="translate(3.590708 8.924985)">
      <path d="m2.55371473 1.9928284 18.00219977-1.97548219c1.5728595-.17266207 2.9873602.96317847 3.1593412 2.53697445l.003661.03328938c.1719809 1.57371085-.9636042 2.98940356-2.5364637 3.16198048l-18.00219974 1.97556733c-1.57286797.17257693-2.98737724-.96326361-3.15938373-2.53697445l-.00364396-.03337452c-.17200649-1.57371085.96361268-2.98940356 2.53648916-3.16198048zm17.54168247.7160197c-.0000851.65148428.5276069 1.17951689 1.1786655 1.17934665.6510586-.00008518 1.179006-.52828807 1.1790912-1.1796872.0000851-.65148428-.5276069-1.17951689-1.1786655-1.17934665-.6511437.00008518-1.1790061.52828806-1.1790912 1.1796872zm-8.9726379 1.17832494c-.0000851.57903092.4689461 1.04840269 1.0477216 1.04831755.5786903-.00008514 1.0478918-.46962719 1.047977-1.04865811.0001703-.57911605-.4689461-1.04840269-1.0476365-1.04831755-.5787755.00008514-1.047977.46954205-1.0480621 1.04865811zm-9.31662533.93942466c-.00009365.57903092.46898865 1.0484027 1.04772158 1.04831756.57872442-.00008514 1.0479174-.4696272 1.04800259-1.04865811.00017023-.57903092-.46894613-1.0484027-1.04767906-1.04831756s-1.04795146.46954206-1.04804511 1.04865811z" transform="translate(.000172 .000005)" />
    </g>
    <path d="m5.62444301 1.98157746c-.48878349-1.50605082-2.10540443-2.32996728-3.61091887-1.84027281l-.03184202.01036994c-1.50551444.48970299-2.32966079 2.10756697-1.84079216 3.61361778l7.13218629 21.97506193c.48878349 1.5061104 2.10540443 2.3300013 3.61091885 1.8402813l.031842-.0103869c1.5054293-.4896349 2.3296608-2.107533 1.8407922-3.6135582zm3.87527577 17.49143334c-.00008518.6516546-.52820292 1.1800278-1.17951692 1.180198-.651314.0000852-1.17917633-.5280326-1.17900609-1.1796871.00008518-.6516546.52820292-1.1800277 1.17951692-1.180198.651314-.0000852 1.17917633.5280326 1.17900609 1.1796871zm-6.63948644-17.75188234c.57894577-.00011917 1.04823241.46935477 1.04806218 1.04859854-.00008519.57925228-.4695421 1.04892204-1.04848788 1.04904126-.57894578.00011917-1.04814727-.46934626-1.04806214-1.04859854.00017028-.57924376.46954206-1.04891353 1.04848784-1.04904126zm3.94866567 9.91338224c-.00008519.5792863-.4695421 1.0489135-1.04848788 1.0490838-.57894578.0000851-1.04814728-.4693718-1.04806214-1.0486581.00017028-.5792012.46954206-1.0489135 1.04848783-1.0489987.57894578-.0001703 1.04823242.4693718 1.04806219 1.048573z" class="element" mask="url(#b)" transform="translate(19.102489 .000094)" />
    <g fill="#ff2346" fill-rule="nonzero" mask="url(#c)" transform="translate(.048331 16.628281)">
      <path d="m30.1470906 2.25851692c.335448 1.54697717-.6460354 3.0736061-2.1922463 3.40965007l-24.48185461 5.32161851c-1.546262.336044-3.07173304-.6456097-3.40724064-2.19258686-.33550759-1.54697717.64599281-3.0736061 2.1922463-3.40973521l24.48182905-5.32153337c1.546296-.33604397 3.071733.64552454 3.4072662 2.19258686zm-28.55093244 5.88711231c-.00008514.65139914.52763245 1.17943174 1.17869955 1.1793466s1.17892942-.52828802 1.17901456-1.17968716c.00009366-.65139914-.52763245-1.17943174-1.17869954-1.1793466-.6510671.00008513-1.17892943.52820288-1.17901457 1.17968716zm13.06838984-2.6969508c-.0000852.57903092.468946 1.04840269 1.0477215 1.04831756.5786904-.00008514 1.0478919-.46954206 1.047977-1.04865811.0000852-.57903092-.4690312-1.04831756-1.0477215-1.04823242-.5786904 0-1.047977.46954205-1.047977 1.04857297zm11.6642249-2.60423433c-.0000852.57903092.4690312 1.04840269 1.0477216 1.04831755.5786903-.00008514 1.047977-.46954205 1.047977-1.04857297.0000851-.57903092-.4689461-1.04840269-1.0477216-1.04831755-.5786904.00008514-1.0478919.46954205-1.047977 1.04857297z" transform="translate(.000249 -.000132)" />
    </g>
    <path d="m1.48761385 19.7920355c.38070793-1.1731315 1.63983837-1.8149099 2.81235683-1.4334016.17775338.0578094.34747814.1376699.5051983.2377934l.05857569.0383978c.87219033-.3986212 1.90250096-.0141331 2.30129244.8587979.18100569.3962373.2067177.8460271.07194253 1.2602287l-1.61691042 4.9708455c-.49139726 1.5042374-2.10707316 2.3270215-3.61211934 1.8395151l-.02665705-.0086842c-1.50516536-.4896349-2.32917549-2.1074478-1.84046011-3.6133879zm.27373916 4.9802108c.00011922.5792012.46944843 1.0489135 1.04827501 1.0489986.5788351.0000852 1.04796848-.4692866 1.04784931-1.0484878-.00012773-.5792863-.46945694-1.0489135-1.04828352-1.0489987-.5788351-.0001702-1.04796848.4692867-1.0478408 1.0484879z" class="element" />
  </g>
</svg>
